<?xml version="1.0" encoding="UTF-8"?>
<!DOCTYPE svg PUBLIC "-//W3C//DTD SVG 1.1//EN" "http://www.w3.org/Graphics/SVG/1.1/DTD/svg11.dtd">
<!-- Creator: CorelDRAW 2018 (64 Bit Versión de evaluación) -->
<svg xmlns="http://www.w3.org/2000/svg" xml:space="preserve" width="130mm" height="30mm" version="1.1" style="shape-rendering:geometricPrecision; text-rendering:geometricPrecision; image-rendering:optimizeQuality; fill-rule:evenodd; clip-rule:evenodd"
viewBox="0 0 13000 3000"
 xmlns:xlink="http://www.w3.org/1999/xlink">
 <defs>
  <style type="text/css">
   <![CDATA[
    .fil0 {fill:black}
   ]]>
  </style>
 </defs>
 <g id="Capa_x0020_1">
  <metadata id="CorelCorpID_0Corel-Layer"/>
  <g id="_2895514211504">
   <path class="fil0" d="M1912.05 2229.04c48.63,-182.12 174.85,-264.84 223.47,-446.94l581.02 0c20.31,244 296.9,446.94 -804.49,446.94zm670.41 -1072.66c4.02,180.36 53.91,294.63 89.38,446.94l-402.24 0c93.59,-139.75 187.77,-355.28 312.86,-446.94zm-849.18 1027.96c-607.41,0 -857.11,-742.27 43.6,-1341.9 1021.62,-680.09 2379.19,-173.47 1707.54,724.27 -84.57,113.03 -173.41,220.68 -320.94,260.08 -65.54,-136.6 -125.85,-470.26 -173.41,-631.07 -77.93,-263.49 -166.17,-824.94 -441.65,-386.23l-593.79 970.49c-80.55,134.17 -179.99,226.8 -221.35,404.36zm89.39 312.85c793.49,0 2011.22,-558.24 2011.22,-1474.89 0,-850.92 -1975.11,-887.24 -2798.21,196.29 -508.78,669.75 -70.56,1278.6 786.99,1278.6z"/>
   <path class="fil0" d="M5621.64 2318.42l312.86 0c8.31,-373.02 30.53,-415.76 134.09,-491.63 36.22,155.5 152.2,356.97 223.47,491.63l357.54 0c59.94,-257.27 156.63,-761.91 178.78,-1027.95l-312.87 0c0,226.59 -44.68,243.5 -44.68,491.63l-89.39 0c-19.3,-231.84 -128.15,-274.33 -178.78,-491.63l-402.24 0c-75.47,323.94 -103.18,703.45 -178.78,1027.95z"/>
   <path class="fil0" d="M11029.6 2318.42l312.86 0c0,-226.6 44.68,-243.5 44.68,-491.63l89.4 0c43.02,184.67 127.59,271.95 178.77,491.63l402.25 0c22.13,-266.04 118.83,-770.68 178.77,-1027.95l-312.85 0c-39.1,469.77 -27.08,413.22 -134.09,491.63 -50.63,-217.32 -159.48,-259.81 -178.78,-491.63 -446.32,0 -419.28,-91.46 -473.86,330.61 -33.01,255.26 -89.28,482.49 -107.15,697.34z"/>
   <path class="fil0" d="M7230.62 2094.95c15.7,-188.6 84.96,-382.17 89.38,-581.02 159.93,3.57 312.87,19.6 312.87,178.77 0,267.31 -147.09,381.01 -402.25,402.25zm-357.55 223.47c350.64,0 1072.65,104.64 1072.65,-625.72 0,-454.17 -439.44,-402.23 -893.87,-402.23 -27.9,335.23 -150.88,692.72 -178.78,1027.95z"/>
   <path class="fil0" d="M8392.66 1737.4c16.3,-195.88 12.85,-218.77 223.47,-223.47 -4.79,214.78 -27.52,202.97 -223.47,223.47zm-402.24 581.02l312.86 0c14.33,-172.24 44.68,-144.1 44.68,-357.55l178.78 357.55 402.24 0c-79.03,-149.36 -176.11,-309.48 -268.15,-446.94 198.48,-53 293.54,-170.23 312.85,-402.24 -261.35,-300.68 -727.34,-227.32 -806.76,-136.62l-176.5 985.8z"/>
   <path class="fil0" d="M4995.93 1692.7c129.85,95.15 84.27,-6.22 89.39,223.47l-178.78 0c48.75,-92.13 62.01,-105.92 89.39,-223.47zm-625.71 625.72c738.16,0 -71.02,-178.78 804.48,-178.78l0 178.78 357.55 0c-52.06,-223.43 -188.77,-862.49 -268.15,-1027.95l-357.56 0c-42.01,180.32 -426.09,819.63 -536.32,1027.95z"/>
   <path class="fil0" d="M10493.27 1648.02l51.47 266.67 -185.55 1.48c26.06,-111.83 3.42,-48.28 44.27,-134.49 34.37,-72.51 45.32,-82.48 89.81,-133.66zm-670.41 670.4l312.87 0 50.15 -177.04c293.26,-1.74 419.59,-85.95 441.47,177.04l312.87 0c-6.59,-295.65 -158.86,-750.62 -223.47,-1027.95l-357.56 0 -536.33 1027.95z"/>
   <path class="fil0" d="M9018.37 2318.42c740.68,0 708.84,57.73 715.1,-223.47l-357.55 0 0 -178.78c430.74,0 402.25,37.8 402.25,-268.15l-357.55 0c123.64,-233.67 -21.97,-94.04 267.65,-134.6 199.52,-27.95 174.44,-5.03 179.29,-222.95 -839.29,0 -676.66,-72.38 -759.88,446.85 -28.11,175.39 -85.34,403.07 -89.31,581.1z"/>
   <path class="fil0" d="M12281.03 2318.42l312.85 0c22.14,-266.04 118.83,-770.68 178.77,-1027.95l-312.85 0c-75.63,324.65 -103.14,703.3 -178.77,1027.95z"/>
  </g>
 </g>
</svg>
