<?xml version="1.0" encoding="UTF-8"?>
<!DOCTYPE svg PUBLIC "-//W3C//DTD SVG 1.1//EN" "http://www.w3.org/Graphics/SVG/1.1/DTD/svg11.dtd">
<!-- Creator: CorelDRAW 2018 (64 Bit Versión de evaluación) -->
<svg xmlns="http://www.w3.org/2000/svg" xml:space="preserve" width="160mm" height="40mm" version="1.1" style="shape-rendering:geometricPrecision; text-rendering:geometricPrecision; image-rendering:optimizeQuality; fill-rule:evenodd; clip-rule:evenodd"
viewBox="0 0 16000 4000"
 xmlns:xlink="http://www.w3.org/1999/xlink">
 <defs>
  <style type="text/css">
   <![CDATA[
    .str0 {stroke:#373435;stroke-width:20;stroke-miterlimit:22.9256}
    .fil3 {fill:#FEFEFE}
    .fil0 {fill:#373435}
    .fil2 {fill:#F5F5FA}
    .fil1 {fill:#282829}
   ]]>
  </style>
 </defs>
 <g id="Capa_x0020_1">
  <metadata id="CorelCorpID_0Corel-Layer"/>
  <path class="fil0 str0" d="M1902.15 2553.87l-85.69 -398.09c-43.34,-57.18 -59.49,-218.72 -339.27,-557.11 -62.94,-76.13 -140.62,-158.24 -219.31,-224.65l-252.34 -192.04c-40.47,-0.3 -17.08,27.01 6.57,121.2l519.03 2066.95 660.08 -0.89 857.82 -2211.09c41.65,-108.59 85.99,-211.71 121.61,-313.09l-660.51 -4.35c-10.33,60.26 -50.19,157.09 -71.27,216.37l-228.3 645.58c-51.38,136.52 -100.94,282.38 -150.04,425.35 -25.36,73.83 -49.99,140.25 -75.03,212.06 -13.34,38.26 -58.73,184.84 -83.35,213.8z"/>
  <path class="fil0 str0" d="M2191.22 3369.24l857.82 -2211.09c41.65,-108.59 85.99,-211.71 121.61,-313.09l-660.51 -4.35c-10.33,60.26 -50.19,157.09 -71.27,216.37l-228.3 645.58c-51.38,136.52 -100.94,282.38 -150.04,425.35 -25.36,73.83 -49.99,140.25 -75.03,212.06 -13.34,38.26 -58.73,184.84 -83.35,213.8l-85.69 -398.09c-43.34,-57.18 -59.49,-218.72 -339.27,-557.11 -62.94,-76.13 -140.62,-158.24 -219.31,-224.65l-252.34 -192.04c-40.47,-0.3 -17.08,27.01 6.57,121.2l519.03 2066.95 660.08 -0.89z"/>
 </g>
 <g id="Capa_x0020_1_0">
  <metadata id="CorelCorpID_1Corel-Layer"/>
  <path class="fil1" d="M15320.78 2432.44c68.99,-16.53 66.35,-60.25 133.6,17.99l-9.86 62.86c-93.49,37.78 -45.62,18.56 -124.62,-6.96l0.88 -73.89zm-137.05 91.48c3.55,73.14 -31.55,54.17 -96.07,54.22 -101.43,0.03 -80.45,-0.35 -93.51,-16.04l-13.09 -24.89c-1.05,-2.09 -2.15,-6.73 -4.13,-9.47 -124.77,120.44 -401.8,73.22 -408.95,-218.8 -2.75,-111.92 30.06,-152.1 39.19,-238.8l-70.86 23.28c-63.93,88.38 -61.38,307.99 -101.22,426.79l-50.75 3.69 -7.04 52.81 -194.39 1.2 111.71 -699.92 46.06 -0.62 16.81 -49.43 165.92 1.01c20.63,40.52 1.98,12.19 8.82,36.87l13.3 37.78c49.07,-61.01 73.97,-86.85 162.85,-81.48l-65.74 188.21c49.8,-39.1 41.44,-72.76 101.84,-96.71 122.56,-95.13 195.05,-132.09 364.05,-46.26l26.43 -149.17 46.11 -2.95 11.28 -51.95 197.02 -0.49c-7.1,87.29 -137.3,815.96 -158.02,858.5l-47.62 2.62zm-2737.57 -1709.61c-15,47.56 -30.5,40.83 -84.54,95.67 -29.76,30.2 -58.82,53.55 -79.57,88.62 87.09,17.51 232.89,-2.82 328.52,3.38 70.51,4.56 148.51,127.88 166.3,176.4l-631.7 0.05c-38.79,15.94 -102.86,135.66 -114.51,181.09l867.94 0.42 70.67 178.64 -1027.35 2.59 -52.65 177.81 1139.88 0.97 16.17 95.45c-51.03,-0.06 -67.98,-2.55 -102.99,24.97l100.6 -15.26c80.48,4.31 54.93,-40.19 123.99,-68.2 99.04,-59.62 105.63,-89.39 241.65,-108.83 66.06,-9.45 233.4,5.19 283.8,44.67l-31.44 177.1 -56.19 -16.54 0.37 62.64c-51.21,-0.92 -85.18,-27.41 -132.98,-34.51 -64.51,-9.59 -89.74,5.76 -145.13,9.84 -78.45,35.02 -139.53,247.09 -80.97,374.73 49.74,108.43 234.32,118.5 318.82,49.19 10.37,-52.72 45.18,-100.71 84.88,-115.1 79.13,-99.39 194.78,-125.99 341.95,-123.08 -39.31,-105.12 -254.71,-33.95 -339.95,-26.32 3.61,-29.24 11.99,-86.43 18.9,-113.86 11.95,-47.51 18.85,-43.14 56.96,-52.45l12.08 -42.31c156.81,-26.22 427.55,-79.07 490.2,91.79 32.68,89.14 -43.21,492.21 -67.06,591.12l-50.12 0.17 -3.94 48.93 -160.53 3.51c-5.89,-22.81 -5.01,-38.45 -23.62,-63.34 -38.02,53.4 -112.39,77.23 -198.15,73.58 -98.35,-4.18 -130.17,-49.46 -167.9,-116.7 -26.6,59.69 -8.47,31.3 -64.12,55.43 -8.6,44.19 1.26,32.69 -40.19,46.47 -135.66,45.1 -307.24,8.28 -421.86,-103.55 -25.33,27.94 -39.16,99.29 -56.94,149.04l-1030.45 4.42 79.16 178.89 862.8 -2.21c-11.07,48.07 -68.33,142.15 -100.21,179.81l-645.11 3.28c6.87,23.53 43.52,71.12 64.84,96.78 112.11,134.88 119.69,66.59 426.06,77.86 -24.96,69.34 -151.51,147.63 -187.97,188.94 47.41,-5.18 60.11,24.73 102.71,56.97 80.48,60.92 208.81,133.38 302.39,179.57 530.65,261.82 1066.7,230.9 1594.49,55.68 306.98,-101.89 600.88,-354.2 764.8,-552.42 755.47,-913.56 269.89,-2173.33 -752.74,-2563.64 -330.54,-126.15 -732.12,-175.99 -1112.74,-106.68 -158.36,28.84 -350.09,89.01 -488.38,155.99 -100.76,48.83 -214.38,113.84 -302.96,180.51 -34.14,25.68 -60.61,64.09 -105.97,62.03z"/>
  <path class="fil1" d="M10375.85 2293.26c33.74,-41.57 32.52,-64.71 77.81,-86.45 92.78,-101.19 180.39,-134.37 349.59,-129.69 -38.55,-106.69 -246.19,-36.19 -337.92,-26.88 2.6,-33.05 9.08,-72.89 15.89,-105.97 10.66,-51.72 10.3,-47.37 58.39,-57.12 15.69,-67.58 52.35,-53.22 120.57,-63.37 58.12,-8.67 117.28,-13.9 180.08,-8.92 131.4,10.41 184.11,46.6 215.88,174.45 41.01,-31.02 27.99,-41.77 73.48,-66.54 61.01,-66.97 72.92,-84.57 177.34,-102.89 76.12,-13.36 190.42,-5.93 267.73,3.51l-19.27 159.6 -53.29 1.6c-4.56,67.58 -15.23,51.69 -77.43,44.73 -33.24,-3.74 -73.72,-8.43 -113.86,2.41 14.94,48.81 13.59,41.57 53.87,60.95 25.4,12.23 52.42,21.8 78.21,36.58 56.04,32.14 78.15,58.36 100.59,121.22 14.45,-91.06 31.7,-178.14 47.59,-264.25 8.51,-46.13 16.14,-89.01 23.72,-134.28 11.75,-70.15 2.32,-83.03 64.66,-78.75 10.09,-68.52 9.36,-56.89 77.49,-55.81 44.07,0.69 88.21,1.15 132.3,1.59l-21.25 107.32 96.85 2.36 -22.04 160 -34.47 6.77 -10.06 49.81 -66.89 1.24c-15.84,54.49 -56.85,243.65 -42.78,286.61 30.62,46.78 56.95,34 112.52,31.48 -60.39,-131.72 40.86,-364.21 124.35,-413.73 78.81,-94.91 212.77,-184.86 394.87,-120.31 149.44,52.98 170.56,210.52 123.64,403.66l-46.22 0.43 -12.14 50.05 -334.33 9.37c52.19,134.56 257.27,74.57 373.65,44.73l-28.76 166.22 -55.19 19.61 -9.93 38.85c-97.59,20.01 -197.16,40.63 -307.32,15.53 -59.25,-13.5 -88.71,-27.25 -132.95,-61.05 -55.07,-42.06 -39.47,-35.62 -70.06,-82.32 -1.53,-2.33 -3.46,-5.36 -5.02,-7.6 -9.73,-13.99 -8.24,-12.48 -17.7,-22.07 -21.6,94.11 9.09,98.41 -73.05,121.49 -7.51,52.01 -21.93,47.69 -73.34,55.48 -36.53,5.55 -76.27,9.06 -113.63,3.84 -74.01,-10.33 -110.81,-57.08 -124.64,-143.68 -25.39,19.88 -63.91,46.2 -90.83,68.82 -59.45,92.33 -270.08,80.89 -371.35,70.96 -2.8,-0.28 -49.27,-7.6 -56.79,-11.78l-43.89 -50.3c-66.65,42.12 43.84,66.4 -188.05,55.59l-26.64 -64.38c-74.79,127.85 -383.12,116.4 -375.02,-135.38 -6.71,32.89 -9.88,63.7 -16.18,95.14 -11.19,55.83 -12.31,52.56 -62.86,54.63l-8.88 49.47 -193.48 2.01 66.23 -436.8c-40.94,46.01 -113.61,301.95 -162.13,383.87l-37.71 0.45 -16.6 50.41c-145.54,14.11 -137.93,23.88 -140.27,-118.55 -1.38,-83.88 0.57,-180.96 -10.2,-260.63l-68.51 328.91 -52.02 0.26 -5.53 49.89 -183.5 2.76 153.35 -861.87 47.92 0.09 13.47 -53.83 284.8 -0.5 8.75 382.29 12.28 -14.98c1.14,-1.86 3.94,-5.7 5.25,-8.03 25.07,-44.52 76.8,-229.32 114.85,-302.29l43.41 -4.91 21.81 -46.89 312.27 -4.63 -111.48 630.39zm2068.71 1053.04c36.46,-41.31 163.01,-119.6 187.97,-188.94 -306.37,-11.27 -313.95,57.02 -426.06,-77.86 -21.32,-25.66 -57.97,-73.25 -64.84,-96.78l645.11 -3.28c31.88,-37.66 89.14,-131.74 100.21,-179.81l-862.8 2.21 -79.16 -178.89 1030.45 -4.42c17.78,-49.75 31.61,-121.1 56.94,-149.04 -90.16,-165.4 -66.3,-186.79 -65.98,-397.83 -60.16,5.72 -57.5,10.05 -103.26,22.85 -49.24,142.61 -53.84,283.26 -94.97,428.58l-47.19 2.84c-9.18,62.5 -19.91,53.63 -77,52.99 -42.71,-0.47 -85.79,-0.6 -128.57,-1.58l113.21 -696.58 47.68 -4.91 10.21 -48.02 178.02 0.1 -2.02 87.9c30.2,-22.82 44.18,-46.84 79.82,-75.46 35.01,-27.52 51.96,-25.03 102.99,-24.97l-16.17 -95.45 -1139.88 -0.97 52.65 -177.81 1027.35 -2.59 -70.67 -178.64 -867.94 -0.42c11.65,-45.43 75.72,-165.15 114.51,-181.09l631.7 -0.05c-17.79,-48.52 -95.79,-171.84 -166.3,-176.4 -95.63,-6.2 -241.43,14.13 -328.52,-3.38 20.75,-35.07 49.81,-58.42 79.57,-88.62 54.04,-54.84 69.54,-48.11 84.54,-95.67 -207.78,-189.44 -574.88,-347.96 -887.34,-401.95 -1620.72,-280.06 -2859.19,1390.39 -1858.04,2661.2 544.87,691.62 1571.82,884.85 2339.48,523.81 138.04,-64.91 294.9,-155.5 404.3,-251.07z"/>
  <path class="fil1" d="M6760.77 2478.65c2.41,-36.11 306.48,-911.47 326.04,-943.74 27.36,75.04 188.1,913.2 180.56,934.45 -57.7,29.14 -408.62,8.02 -506.6,9.29zm-323.38 892.72c32.28,-49.54 106.11,-301.27 137.74,-380.14l801.84 -0.23 75.15 381.32 576.03 -2.26 -503.84 -2529.46c-385.86,4.7 -688.08,-83.77 -810.86,222.14 -99.15,247.01 -211.68,514.29 -305.71,768.76 -155.49,420.78 -383.62,927.68 -538.29,1348.43 -23.89,64.99 -52.85,125.66 -72.69,192.27l640.63 -0.83z"/>
  <path class="fil1" d="M4138.37 2716.87c-14.28,176.66 -80.66,402.76 -79.36,566.24 223.11,49.17 243.46,104.15 586.03,124.04 379.94,22.08 821.72,-74.12 1046.31,-400.6 240.26,-349.23 193.15,-770.09 -196.36,-1039.86 -206.61,-143.1 -675.09,-290.76 -500.53,-526.81 50.07,-67.71 153.58,-105.23 249.06,-115.08 108.35,-11.17 230.5,0.5 330.72,22.68 109.88,24.32 178.42,65.38 266.25,98.48l83.11 -548.74c-241.72,-61.9 -324.74,-111.27 -614.49,-99.84 -224.35,8.85 -415.42,58.32 -578.17,151.51 -370.61,212.21 -546.26,653.31 -323.25,1008.53 85.53,136.26 238.09,245.29 396.48,334.32 123.88,69.63 393.74,166.3 377.85,358.55 -24.94,301.76 -571.25,250.89 -787.95,173.62 -46.32,-16.52 -84.68,-32.67 -129.53,-52.83 -37.28,-16.76 -88,-45.58 -126.17,-54.21z"/>
  <path class="fil1" d="M1816.46 2155.78c-43.34,-57.18 -59.49,-218.72 -339.27,-557.11 -62.94,-76.13 -140.62,-158.24 -219.31,-224.65l-252.34 -192.04c-40.47,-0.3 -17.08,27.01 6.57,121.2l519.03 2066.95 660.08 -0.89 857.82 -2211.09c41.65,-108.59 85.99,-211.71 121.61,-313.09l-660.51 -4.35c-10.33,60.26 -50.19,157.09 -71.27,216.37l-228.3 645.58c-51.38,136.52 -100.94,282.38 -150.04,425.35 -25.36,73.83 -49.99,140.25 -75.03,212.06 -13.34,38.26 -58.73,184.84 -83.35,213.8l-85.69 -398.09z"/>
  <polygon class="fil1" points="3039.53,3369.71 3661.36,3371.62 4049.1,841.39 3427.78,839.4 "/>
  <path class="fil1" d="M15340.83 2990.56c2.97,-6.5 1.32,-26.1 45.05,-25.96 26.09,0.09 36.94,10.33 50.13,18.89l14.83 53.35c-63.69,101.42 -124.64,11.47 -124.78,11.03 -20.66,-64.9 13.94,-56.29 14.77,-57.31zm-2894.67 -2176.25c45.36,2.06 71.83,-36.35 105.97,-62.03 88.58,-66.67 202.2,-131.68 302.96,-180.51 138.29,-66.98 330.02,-127.15 488.38,-155.99 380.62,-69.31 782.2,-19.47 1112.74,106.68 1022.63,390.31 1508.21,1650.08 752.74,2563.64 -163.92,198.22 -457.82,450.53 -764.8,552.42 -527.79,175.22 -1063.84,206.14 -1594.49,-55.68 -93.58,-46.19 -221.91,-118.65 -302.39,-179.57 -42.6,-32.24 -55.3,-62.15 -102.71,-56.97 -109.4,95.57 -266.26,186.16 -404.3,251.07 -767.66,361.04 -1794.61,167.81 -2339.48,-523.81 -1001.15,-1270.81 237.32,-2941.26 1858.04,-2661.2 312.46,53.99 679.56,212.51 887.34,401.95zm-3154.88 1198.66c0,398.2 62.27,608.76 234.34,910.57 7.62,13.36 13.72,23.78 22.37,36.73 58.04,86.82 153.32,215.26 222.97,281.78l53.76 51.07c194.14,184.42 369.09,281.21 604.19,387.09 285.35,128.5 846.64,198.62 1187.67,111.75 345.96,-88.12 546.42,-158.8 849.38,-385.05 28.31,43.09 309.24,210.47 375.95,234.53 319.11,115.15 436.66,184.89 829.76,184.89 371.27,0 653.66,-49.06 985.93,-220.43 162.82,-83.98 331.55,-209.42 468.29,-341.27 2.3,-2.22 16.81,-16.36 17.7,-17.27l28.06 -30.39c1.65,-1.74 4.07,-4.2 5.74,-5.94l65.87 -74.57c12.8,-16.35 21.79,-32.72 32.34,-50.28 45.08,13.44 46.81,49.34 110.61,49.34 138.79,0 166.12,-196.35 22.13,-209.71 4.35,-58.29 54.94,-122.71 77.74,-172.35 208.35,-453.73 187.86,-1000.67 -43.9,-1432.03 -242.68,-451.65 -620.92,-726.61 -1063.74,-886.12 -425.6,-153.34 -1009.51,-135.49 -1416.5,33.69 -44.08,18.32 -89.42,32.96 -130.75,51.56l-128.22 66.73c-295.09,184.65 -205.35,181.81 -351.08,84.92 -43.15,-28.69 -78.25,-47.72 -120.24,-75.61l-126.67 -68.45c-505.54,-248.9 -1185.75,-261 -1702.91,-39.66 -156.28,66.88 -209.78,106.12 -342,186.05l-187.19 148.99c-74.43,64.79 -151.95,137.16 -213.31,218.53 -32.51,43.13 -56.08,79.58 -88.32,123.56 -138.8,189.44 -279.97,551.82 -279.97,847.35z"/>
  <path class="fil1" d="M1005.54 1181.98c-20.71,-6.9 -257.98,-159.67 -508.23,-241.09 -138.37,-45.01 -163.54,-31.1 -165.94,-87.49 52.95,-32.49 558.46,-11.49 663.73,-11.49 221.57,0 450.18,-42.8 569.63,103.77 55.42,68.02 65.59,189.1 83.64,291.67 28.83,163.74 162.29,815.1 168.09,918.43l85.69 398.09c24.62,-28.96 70.01,-175.54 83.35,-213.8 25.04,-71.81 49.67,-138.23 75.03,-212.06 49.1,-142.97 98.66,-288.83 150.04,-425.35l228.3 -645.58c21.08,-59.28 60.94,-156.11 71.27,-216.37l660.51 4.35c-35.62,101.38 -79.96,204.5 -121.61,313.09l-857.82 2211.09 -660.08 0.89 -519.03 -2066.95c-23.65,-94.19 -47.04,-121.5 -6.57,-121.2zm-751.57 -291.57c0,89.07 72.82,75.89 142.67,99.95 169.11,58.26 321.3,120.07 480.32,204.51 62.54,33.19 57.3,84.07 76.17,161.75l148.11 587.32c80.5,359.08 211.04,798.84 294.39,1164.34 35.85,157.16 56.26,335.64 152.55,335.64l630.51 0c84.48,0 115.44,-141.34 167.49,-281.98l127.46 -326.61c46.59,-111.1 81.59,-219.71 125.57,-328.73l641.39 -1653.2c0,-57.58 -25.79,-86.35 -77.43,-86.35l-641.57 0c-44,0 -58.52,16.02 -73.58,53.65 -124.2,310.13 -322.35,918.83 -446.21,1266.41 -21.64,60.73 -52.81,131.81 -66.48,197.24l-22.12 0c0,-71.28 -231.09,-1263.35 -252.28,-1322.3 -43.48,-120.96 -162.44,-195 -311.86,-195l-1017.67 0c-62.78,0 -77.43,55.51 -77.43,123.36z"/>
  <path class="fil1" d="M4138.37 2716.87c38.17,8.63 88.89,37.45 126.17,54.21 44.85,20.16 83.21,36.31 129.53,52.83 216.7,77.27 763.01,128.14 787.95,-173.62 15.89,-192.25 -253.97,-288.92 -377.85,-358.55 -158.39,-89.03 -310.95,-198.06 -396.48,-334.32 -223.01,-355.22 -47.36,-796.32 323.25,-1008.53 162.75,-93.19 353.82,-142.66 578.17,-151.51 289.75,-11.43 372.77,37.94 614.49,99.84l-83.11 548.74c-87.83,-33.1 -156.37,-74.16 -266.25,-98.48 -100.22,-22.18 -222.37,-33.85 -330.72,-22.68 -95.48,9.85 -198.99,47.37 -249.06,115.08 -174.56,236.05 293.92,383.71 500.53,526.81 389.51,269.77 436.62,690.63 196.36,1039.86 -224.59,326.48 -666.37,422.68 -1046.31,400.6 -342.57,-19.89 -362.92,-74.87 -586.03,-124.04 -1.3,-163.48 65.08,-389.58 79.36,-566.24zm108.83 -1135.66c0,282.58 50.92,378.7 218.25,558.45 217.88,234.05 644.56,314.2 644.56,502.42 0,233.88 -566.44,165.35 -728.51,96.96 -89.11,-37.6 -230.55,-119.83 -273.18,-92.64 -50.44,32.17 -61.06,239.22 -79.5,344.27 -61.27,349.11 -99.83,367.95 280.03,446.18l427.04 55.01 273.77 -24.16c282.99,-34.85 604.85,-187.58 759.79,-447.94 102.48,-172.21 175.01,-425.92 105.37,-675.48 -150.47,-539.25 -842.24,-586.68 -842.24,-812.4 0,-98.89 205.26,-135.7 287.6,-135.7 569.83,0 543.28,369.08 621.04,-158.59 10.35,-70.19 55.47,-309.91 45.41,-350.06 -18.98,-75.68 -168.55,-104.47 -261.77,-127.69 -465.5,-115.94 -1115.75,8.12 -1355.45,427.22 -55.26,96.62 -122.21,238.27 -122.21,394.15z"/>
  <path class="fil1" d="M6437.39 3371.37l-640.63 0.83c19.84,-66.61 48.8,-127.28 72.69,-192.27 154.67,-420.75 382.8,-927.65 538.29,-1348.43 94.03,-254.47 206.56,-521.75 305.71,-768.76 122.78,-305.91 425,-217.44 810.86,-222.14l503.84 2529.46 -576.03 2.26 -75.15 -381.32 -801.84 0.23c-31.63,78.87 -105.46,330.6 -137.74,380.14zm-707.93 -1.47c0,70.02 49.76,86.35 110.61,86.35l564.14 0c107.44,0 107.09,-65.85 137.41,-155.15 18.8,-55.38 68.82,-174.42 72.76,-227.26l707.94 0c97.39,466.16 -27.89,382.41 663.7,382.41 162.1,0 99.88,-152.13 75.12,-268.81l-351.66 -1766.59c-24.79,-116.94 -46.06,-232.75 -69.12,-354.68 -30.18,-159.5 -35.6,-299.12 -129.99,-299.12l-497.77 0c-321.4,0 -347.2,258 -453.27,493.72l-29.02 53.99c-17.53,27.01 -0.64,-6.54 -14.19,21.18 -22.17,45.39 -2.3,33.85 -24.9,95.59 -22.64,61.82 -47.95,116.92 -71.27,179.57 -143.65,385.89 -340.13,828.88 -486.64,1221.33 -24.84,66.55 -46.07,116.87 -71.3,179.53 -23.59,58.55 -132.55,302.8 -132.55,357.94z"/>
  <path class="fil2" d="M9670.44 1716.64c-18.92,131.55 -48.64,270.57 -73.52,404.46 -14.82,79.79 -72.07,335.27 -68.44,403.23l129.72 1.44 52.02 -0.26 68.51 -328.91 48.17 -295.18 24.22 620.92 94.68 3.03 37.71 -0.45c48.52,-81.92 121.19,-337.86 162.13,-383.87 7.95,-41.56 55.87,-184.15 89.62,-219.65 -15.01,150.32 -104.57,483.97 -97.53,603.66l144.04 1.31c50.55,-2.07 51.67,1.2 62.86,-54.63 6.3,-31.44 9.47,-62.25 16.18,-95.14l15.04 -83.34 111.48 -630.39 -312.27 4.63 -21.81 46.89c-14.79,72.14 -58.68,169.34 -84.47,241.36 -19.95,55.72 -54.3,183.68 -90.68,217.14l-0.64 -128.29 -8.75 -382.29 -284.8 0.5 -13.47 53.83z"/>
  <path class="fil1" d="M1005.54 1181.98l252.34 192.04c78.69,66.41 156.37,148.52 219.31,224.65 279.78,338.39 295.93,499.93 339.27,557.11 -5.8,-103.33 -139.26,-754.69 -168.09,-918.43 -18.05,-102.57 -28.22,-223.65 -83.64,-291.67 -119.45,-146.57 -348.06,-103.77 -569.63,-103.77 -105.27,0 -610.78,-21 -663.73,11.49 2.4,56.39 27.57,42.48 165.94,87.49 250.25,81.42 487.52,234.19 508.23,241.09z"/>
  <path class="fil1" d="M3427.78 839.4l621.32 1.99 -387.74 2530.23 -621.83 -1.91 388.25 -2530.31zm-452.66 2542.84c0,29.65 17.92,36.26 33.19,61.68l636.1 4.3c74.2,3.61 79.38,-49.77 93.32,-128.38 48.27,-272.1 81.98,-544.31 125.33,-822.42l251.4 -1656.35c0,-47.16 -32.74,-74.02 -77.43,-74.02l-619.45 0c-69.55,0 -74.5,179.9 -89.93,282.12l-306.69 1989.44c-16.01,108.68 -45.84,226.78 -45.84,343.63z"/>
  <path class="fil3" d="M15010.04 2335.47c-65.97,57.97 -153.78,21.98 -169.53,-57.31 -16.92,-85.23 4.95,-183.62 50.54,-228.85 33.84,-60.8 96.89,-72.42 158.88,-43.73 92.73,71.38 48.48,284.75 -39.89,329.89zm171.03 -620.23c-6.01,58.88 -14.17,141.31 -40.31,189.03l-32.23 -36.91c-169,-85.83 -241.49,-48.87 -364.05,46.26 -35.4,73.51 -72.34,87.86 -103.1,206.18 -87.83,337.82 175.51,523.41 401.92,353.75 1.1,2.14 1.95,5.55 2.46,6.85l14.59 33.98c0.75,-2.13 3.14,6.81 5.08,9.16l118.3 0.38 47.62 -2.62c20.72,-42.54 150.92,-771.21 158.02,-858.5l-197.02 0.49 -11.28 51.95z"/>
  <path class="fil3" d="M13938.76 2371.09c-37.56,12.56 -66.92,28.94 -104.84,5.6 -32.85,-20.23 -38.84,-66.74 -16.64,-102.6 31.77,-66.02 112.19,-66 197.06,-61.43 5.74,81.47 -23.77,125.4 -75.58,158.43zm-211.17 -486.7l-16.88 110.21c71.97,2.77 117.72,-18.23 193.12,-19.56 90.41,-1.59 155.62,-9.38 143.36,100.78l-55.51 1.2c-147.17,-2.91 -262.82,23.69 -341.95,123.08 -52.19,70.02 -60.37,201.68 -3.19,272.54 68.44,84.82 170.05,63.37 278.06,41.62 27.27,-16.68 50.08,-25.9 67.85,-50.29l22.13 59.57 98.11 1.62 50.12 -0.17c23.85,-98.91 99.74,-501.98 67.06,-591.12 -62.65,-170.86 -333.39,-118.01 -490.2,-91.79l-12.08 42.31z"/>
  <path class="fil3" d="M10760.98 2360.64c-77.61,62.2 -186.75,7 -132.27,-87.55 36.29,-71.64 123.35,-62.89 198.98,-60.95 5.04,76.95 -26.34,122.15 -66.71,148.5zm-221.37 -473.49l-15.39 109.24c82.48,-6.28 374.32,-81.2 332.24,70.77l-53.21 9.96c-169.2,-4.68 -256.81,28.5 -349.59,129.69 -141.94,321.2 180.69,411.58 356.09,255.05 1.21,5.01 4.25,25.39 6.38,32.24 7.14,22.84 3.81,15.44 12.71,29.15l148.02 -0.76 19.93 -111.31 47.98 -276.13 11.37 -145.74c-31.77,-127.85 -84.48,-164.04 -215.88,-174.45 -62.8,-4.98 -121.96,0.25 -180.08,8.92 -68.22,10.15 -104.88,-4.21 -120.57,63.37z"/>
  <path class="fil3" d="M12188.23 2021.25c66.25,-65.21 194.64,-96.39 195.25,73.13l-63.13 -1.08 -159.23 -1.67 27.11 -70.38zm-162.73 -70.41c-29.29,65.71 -68.13,127.46 -77.16,224.18 -8.9,95.35 6.68,180.65 52.34,245.93 86.84,124.17 269.88,116.59 440.34,103.65l55.19 -19.61 28.76 -166.22c-116.38,29.84 -321.46,89.83 -373.65,-44.73l-5.12 -59.54 351.59 0.12 46.22 -0.43c46.92,-193.14 25.8,-350.68 -123.64,-403.66 -182.1,-64.55 -316.06,25.4 -394.87,120.31z"/>
  <path class="fil3" d="M13166.92 1756.91c-48.4,87.64 -79,80.6 -124.17,220.24 -31.36,96.97 -39.65,229.6 -8.76,327.39 68.1,215.62 230.24,235.54 460.44,222.03 55.65,-24.13 37.52,4.26 64.12,-55.43 2.4,-37.94 36.87,-139.64 6.3,-155.94 -84.5,69.31 -269.08,59.24 -318.82,-49.19 -58.56,-127.64 2.52,-339.71 80.97,-374.73 1.94,-2.37 4.83,-9.36 5.82,-7.14l11.95 -13.07c1.64,-1.43 4.51,-3.98 6.39,-5.47 64.79,-51.51 195.92,-45.48 253.58,-12.29l56.19 16.54 31.44 -177.1c-50.4,-39.48 -217.74,-54.12 -283.8,-44.67 -136.02,19.44 -142.61,49.21 -241.65,108.83z"/>
  <path class="fil3" d="M11129.62 1922.77c-51.35,136.3 -35.11,218.04 58.62,282.21 38.79,26.56 87.09,43.27 119.69,62.44 62.48,36.72 54.28,88.57 -16.29,106.07 -57.25,22.72 -180.18,-0.95 -230.5,-16.53 -9.39,14.31 -1.07,-6.7 -13.64,25.93 -0.4,1.04 -7.4,25.05 -8.21,27.71 -8.26,106.08 -60.32,114.76 132.32,122.4 108.98,4.31 154.86,-9.16 250.94,-21.11 26.92,-22.62 65.44,-48.94 90.83,-68.82 28.17,-83.06 37.5,-83.41 30.13,-192.59 -22.44,-62.86 -44.55,-89.08 -100.59,-121.22 -25.79,-14.78 -52.81,-24.35 -78.21,-36.58 -40.28,-19.38 -38.93,-12.14 -53.87,-60.95l10.12 -35.64c53.03,-20.3 126.48,-28.51 181.17,-11.5l53.29 -1.6 19.27 -159.6c-77.31,-9.44 -191.61,-16.87 -267.73,-3.51 -104.42,18.32 -116.33,35.92 -177.34,102.89z"/>
  <path class="fil3" d="M11679.48 1773.2c-34.14,152.25 -61.56,321.98 -87.48,473.59 -41.83,244.77 3.58,310.67 232.99,280.64 82.14,-23.08 51.45,-27.38 73.05,-121.49l3.11 -41.37c-55.57,2.52 -81.9,15.3 -112.52,-31.48 -14.07,-42.96 26.94,-232.12 42.78,-286.61l4.14 -49.79 72.81 -1.26 34.47 -6.77 22.04 -160 -96.85 -2.36 21.25 -107.32c-44.09,-0.44 -88.23,-0.9 -132.3,-1.59 -68.13,-1.08 -67.4,-12.71 -77.49,55.81z"/>
  <path class="fil3" d="M14340.68 1877.37l-103.7 646.55 147.36 -0.02 50.75 -3.69c39.84,-118.8 37.29,-338.41 101.22,-426.79 25.52,-79.49 57.27,-46.5 106.33,-83.09l65.74 -188.21c-88.88,-5.37 -113.78,20.47 -162.85,81.48l-13.3 -37.78c-6.84,-24.68 11.81,3.65 -8.82,-36.87l-165.92 -1.01 -16.81 49.43z"/>
  <path class="fil3" d="M12676.3 1875.85l-105.38 646.7 150.06 3.38 47.19 -2.84c41.13,-145.32 45.73,-285.97 94.97,-428.58 53.85,-91.05 37.65,-42.21 110.1,-82.22l69.69 -187.18 -100.6 15.26c-35.64,28.62 -49.62,52.64 -79.82,75.46l2.02 -87.9 -178.02 -0.1 -10.21 48.02z"/>
  <path class="fil1" d="M7078.97 1803.26c0,86.67 38.31,219.17 52.48,299.22 17.95,101.43 37.88,195.92 58.13,292.89l-331.84 0c19.28,-44.79 39.08,-102.81 54.03,-149.45 22.41,-69.91 130.12,-412.37 167.2,-442.66zm-318.2 675.39c97.98,-1.27 448.9,19.85 506.6,-9.29 7.54,-21.25 -153.2,-859.41 -180.56,-934.45 -19.56,32.27 -323.63,907.63 -326.04,943.74z"/>
  <path class="fil1" d="M10375.85 2293.26l-15.04 83.34c-8.1,251.78 300.23,263.23 375.02,135.38l26.64 64.38c231.89,10.81 121.4,-13.47 188.05,-55.59l43.89 50.3c7.52,4.18 53.99,11.5 56.79,11.78 101.27,9.93 311.9,21.37 371.35,-70.96 -96.08,11.95 -141.96,25.42 -250.94,21.11 -192.64,-7.64 -140.58,-16.32 -132.32,-122.4l-42.5 0.58 -19.93 111.31 -148.02 0.76c-8.9,-13.71 -5.57,-6.31 -12.71,-29.15 -2.13,-6.85 -5.17,-27.23 -6.38,-32.24 -175.4,156.53 -498.03,66.15 -356.09,-255.05 -45.29,21.74 -44.07,44.88 -77.81,86.45z"/>
  <path class="fil1" d="M13042.93 1825.11l-69.69 187.18c-72.45,40.01 -56.25,-8.83 -110.1,82.22 45.76,-12.8 43.1,-17.13 103.26,-22.85 -0.32,211.04 -24.18,232.43 65.98,397.83 114.62,111.83 286.2,148.65 421.86,103.55 41.45,-13.78 31.59,-2.28 40.19,-46.47 -230.2,13.51 -392.34,-6.41 -460.44,-222.03 -30.89,-97.79 -22.6,-230.42 8.76,-327.39 45.17,-139.64 75.77,-132.6 124.17,-220.24 -69.06,28.01 -43.51,72.51 -123.99,68.2z"/>
  <path class="fil1" d="M14642.64 2010.33c-49.06,36.59 -80.81,3.6 -106.33,83.09l70.86 -23.28c-9.13,86.7 -41.94,126.88 -39.19,238.8 7.15,292.02 284.18,339.24 408.95,218.8 1.98,2.74 3.08,7.38 4.13,9.47l13.09 24.89c13.06,15.69 -7.92,16.07 93.51,16.04 64.52,-0.05 99.62,18.92 96.07,-54.22l-118.3 -0.38c-1.94,-2.35 -4.33,-11.29 -5.08,-9.16l-14.59 -33.98c-0.51,-1.3 -1.36,-4.71 -2.46,-6.85 -226.41,169.66 -489.75,-15.93 -401.92,-353.75 30.76,-118.32 67.7,-132.67 103.1,-206.18 -60.4,23.95 -52.04,57.61 -101.84,96.71z"/>
  <path class="fil1" d="M11901.15 2364.57l-3.11 41.37c9.46,9.59 7.97,8.08 17.7,22.07 1.56,2.24 3.49,5.27 5.02,7.6 30.59,46.7 14.99,40.26 70.06,82.32 44.24,33.8 73.7,47.55 132.95,61.05 110.16,25.1 209.73,4.48 307.32,-15.53l9.93 -38.85c-170.46,12.94 -353.5,20.52 -440.34,-103.65 -45.66,-65.28 -61.24,-150.58 -52.34,-245.93 9.03,-96.72 47.87,-158.47 77.16,-224.18 -83.49,49.52 -184.74,282.01 -124.35,413.73z"/>
  <path class="fil1" d="M15010.04 2335.47c34.12,-127.67 79.23,-322.47 -118.99,-286.16 -45.59,45.23 -67.46,143.62 -50.54,228.85 15.75,79.29 103.56,115.28 169.53,57.31z"/>
  <path class="fil1" d="M11543.51 2250.48c7.37,109.18 -1.96,109.53 -30.13,192.59 13.83,86.6 50.63,133.35 124.64,143.68 37.36,5.22 77.1,1.71 113.63,-3.84 51.41,-7.79 65.83,-3.47 73.34,-55.48 -229.41,30.03 -274.82,-35.87 -232.99,-280.64 25.92,-151.61 53.34,-321.34 87.48,-473.59 -62.34,-4.28 -52.91,8.6 -64.66,78.75 -7.58,45.27 -15.21,88.15 -23.72,134.28 -15.89,86.11 -33.14,173.19 -47.59,264.25z"/>
  <path class="fil1" d="M9658.2 2525.77l-129.72 -1.44c-3.63,-67.96 53.62,-323.44 68.44,-403.23 24.88,-133.89 54.6,-272.91 73.52,-404.46l-47.92 -0.09 -153.35 861.87 183.5 -2.76 5.53 -49.89z"/>
  <path class="fil1" d="M12720.98 2525.93l-150.06 -3.38 105.38 -646.7 -47.68 4.91 -113.21 696.58c42.78,0.98 85.86,1.11 128.57,1.58 57.09,0.64 67.82,9.51 77,-52.99z"/>
  <polygon class="fil1" points="14384.34,2523.9 14236.98,2523.92 14340.68,1877.37 14294.62,1877.99 14182.91,2577.91 14377.3,2576.71 "/>
  <path class="fil1" d="M9778.73 2196.6c10.77,79.67 8.82,176.75 10.2,260.63 2.34,142.43 -5.27,132.66 140.27,118.55l16.6 -50.41 -94.68 -3.03 -24.22 -620.92 -48.17 295.18z"/>
  <path class="fil1" d="M11056.14 1989.31l-11.37 145.74c21.68,72.59 57.98,105.84 106.02,135.31 52.43,32.13 126.26,36.41 140.85,103.13 70.57,-17.5 78.77,-69.35 16.29,-106.07 -32.6,-19.17 -80.9,-35.88 -119.69,-62.44 -93.73,-64.17 -109.97,-145.91 -58.62,-282.21 -45.49,24.77 -32.47,35.52 -73.48,66.54z"/>
  <path class="fil1" d="M10145.64 2141.05l-66.23 436.8 193.48 -2.01 8.88 -49.47 -144.04 -1.31c-7.04,-119.69 82.52,-453.34 97.53,-603.66 -33.75,35.5 -81.67,178.09 -89.62,219.65z"/>
  <path class="fil1" d="M10996.79 2411.18l42.5 -0.58c0.81,-2.66 7.81,-26.67 8.21,-27.71 12.57,-32.63 4.25,-11.62 13.64,-25.93 50.32,15.58 173.25,39.25 230.5,16.53 -14.59,-66.72 -88.42,-71 -140.85,-103.13 -48.04,-29.47 -84.34,-62.72 -106.02,-135.31l-47.98 276.13z"/>
  <path class="fil1" d="M13564.85 2315.2c30.57,16.3 -3.9,118 -6.3,155.94 37.73,67.24 69.55,112.52 167.9,116.7 85.76,3.65 160.13,-20.18 198.15,-73.58 -108.01,21.75 -209.62,43.2 -278.06,-41.62 -57.18,-70.86 -49,-202.52 3.19,-272.54 -39.7,14.39 -74.51,62.38 -84.88,115.1z"/>
  <path class="fil1" d="M13991.68 2077.02l55.51 -1.2c12.26,-110.16 -52.95,-102.37 -143.36,-100.78 -75.4,1.33 -121.15,22.33 -193.12,19.56l16.88 -110.21c-38.11,9.31 -45.01,4.94 -56.96,52.45 -6.91,27.43 -15.29,84.62 -18.9,113.86 85.24,-7.63 300.64,-78.8 339.95,26.32z"/>
  <path class="fil1" d="M10803.25 2077.12l53.21 -9.96c42.08,-151.97 -249.76,-77.05 -332.24,-70.77l15.39 -109.24c-48.09,9.75 -47.73,5.4 -58.39,57.12 -6.81,33.08 -13.29,72.92 -15.89,105.97 91.73,-9.31 299.37,-79.81 337.92,26.88z"/>
  <path class="fil1" d="M14891.05 2049.31c198.22,-36.31 153.11,158.49 118.99,286.16 88.37,-45.14 132.62,-258.51 39.89,-329.89 -61.99,-28.69 -125.04,-17.07 -158.88,43.73z"/>
  <path class="fil1" d="M9977.46 2044.6l0.64 128.29c36.38,-33.46 70.73,-161.42 90.68,-217.14 25.79,-72.02 69.68,-169.22 84.47,-241.36l-43.41 4.91c-38.05,72.97 -89.78,257.77 -114.85,302.29 -1.31,2.33 -4.11,6.17 -5.25,8.03l-12.28 14.98z"/>
  <polygon class="fil1" points="12151.32,2294.04 12485.65,2284.67 12497.79,2234.62 12146.2,2234.5 "/>
  <path class="fil1" d="M10628.71 2273.09c-54.48,94.55 54.66,149.75 132.27,87.55l12.31 -91.7c-72.35,-8.55 -65.28,-4.84 -144.58,4.15z"/>
  <path class="fil1" d="M13817.28 2274.09c-22.2,35.86 -16.21,82.37 16.64,102.6 37.92,23.34 67.28,6.96 104.84,-5.6 10.56,-49.18 25.38,-52.24 15.56,-110.85l-137.04 13.85z"/>
  <path class="fil1" d="M13327 1891.28c55.39,-4.08 80.62,-19.43 145.13,-9.84 47.8,7.1 81.77,33.59 132.98,34.51l-0.37 -62.64c-57.66,-33.19 -188.79,-39.22 -253.58,12.29 -1.88,1.49 -4.75,4.04 -6.39,5.47l-11.95 13.07c-0.99,-2.22 -3.88,4.77 -5.82,7.14z"/>
  <path class="fil3" d="M15319.9 2506.33c79,25.52 31.13,44.74 124.62,6.96l9.86 -62.86c-67.25,-78.24 -64.61,-34.52 -133.6,-17.99l-0.88 73.89z"/>
  <path class="fil1" d="M13817.28 2274.09l137.04 -13.85c9.82,58.61 -5,61.67 -15.56,110.85 51.81,-33.03 81.32,-76.96 75.58,-158.43 -84.87,-4.57 -165.29,-4.59 -197.06,61.43z"/>
  <path class="fil1" d="M10628.71 2273.09c79.3,-8.99 72.23,-12.7 144.58,-4.15l-12.31 91.7c40.37,-26.35 71.75,-71.55 66.71,-148.5 -75.63,-1.94 -162.69,-10.69 -198.98,60.95z"/>
  <path class="fil1" d="M12188.23 2021.25c69.98,-1.09 73.69,-5.32 122.63,27.71l9.49 44.34 63.13 1.08c-0.61,-169.52 -129,-138.34 -195.25,-73.13z"/>
  <path class="fil1" d="M13924.6 2514.26c18.61,24.89 17.73,40.53 23.62,63.34l160.53 -3.51 3.94 -48.93 -98.11 -1.62 -22.13 -59.57c-17.77,24.39 -40.58,33.61 -67.85,50.29z"/>
  <path class="fil1" d="M12320.35 2093.3l-9.49 -44.34c-48.94,-33.03 -52.65,-28.8 -122.63,-27.71l-27.11 70.38 159.23 1.67z"/>
  <path class="fil1" d="M11310.84 2031.73c40.14,-10.84 80.62,-6.15 113.86,-2.41 62.2,6.96 72.87,22.85 77.43,-44.73 -54.69,-17.01 -128.14,-8.8 -181.17,11.5l-10.12 35.64z"/>
  <path class="fil1" d="M15108.53 1867.36l32.23 36.91c26.14,-47.72 34.3,-130.15 40.31,-189.03l-46.11 2.95 -26.43 149.17z"/>
  <path class="fil1" d="M15340.83 2990.56c-0.83,1.02 -35.43,-7.59 -14.77,57.31 0.14,0.44 61.09,90.39 124.78,-11.03l-14.83 -53.35c-28.42,23.89 -13.78,-5.91 -5.6,76.15l-29.33 -32.39c-21.28,-28.27 10.76,-12.72 -25.93,-29.46l-31.51 63.65c10.8,-49.8 9.3,-17.39 -2.81,-70.88z"/>
  <path class="fil1" d="M15340.83 2990.56c12.11,53.49 13.61,21.08 2.81,70.88l31.51 -63.65c36.69,16.74 4.65,1.19 25.93,29.46l29.33 32.39c-8.18,-82.06 -22.82,-52.26 5.6,-76.15 -13.19,-8.56 -24.04,-18.8 -50.13,-18.89 -43.73,-0.14 -42.08,19.46 -45.05,25.96z"/>
  <polygon class="fil1" points="11831.41,2046.48 11898.3,2045.24 11908.36,1995.43 11835.55,1996.69 "/>
 </g>
</svg>
